<svg width="150" height="147" viewBox="0 0 150 147" fill="none" xmlns="http://www.w3.org/2000/svg">
<path d="M75 73.6007C95.7107 73.6007 112.5 57.1472 112.5 36.8507C112.5 16.5542 95.7107 0.100688 75 0.100688C54.2893 0.100688 37.5 16.5542 37.5 36.8507C37.5 57.1472 54.2893 73.6007 75 73.6007Z" fill="#2196F3"/>
<path d="M131.28 119.513C131.281 128.644 131.28 137.774 131.28 146.905H18.7208C18.7208 137.774 18.7206 128.644 18.7208 119.513" fill="#2196F3"/>
<path d="M131.28 123.878V103.755C131.28 92.1441 120.815 82.7902 107.825 82.7902H42.1765C29.1861 82.7902 18.7207 92.1441 18.7207 103.755V123.878" fill="#2196F3"/>
</svg>
